<svg width="16" height="17" viewBox="0 0 16 17" fill="none" xmlns="http://www.w3.org/2000/svg">
  <g clip-path="url(#a)">
    <g clip-path="url(#b)" fill="#000">
      <path d="M8 10.3569c1.10457 0 2-.8954 2-1.99997s-.89543-2-2-2-2 .89543-2 2 .89543 1.99997 2 1.99997Z"/>
      <path d="M14.7 1.65693c-.9-.899996-2-1.299996-3.4-1.299996H4.7C1.9.356934 0 2.25693 0 5.05693v6.59997c0 1.4.4 2.6 1.4 3.4.9.9 2 1.3 3.3 1.3h6.6c1.4 0 2.6-.4 3.4-1.3.8-.9 1.3-2 1.3-3.4V5.05693c0-1.4-.4-2.6-1.3-3.4ZM8 12.4569c-2.2 0-4.1-1.8-4.1-4.09997 0-2.3 1.9-4.1 4.1-4.1 2.2 0 4.1 1.8 4.1 4.1 0 2.29997-1.9 4.09997-4.1 4.09997Zm4.6-7.39997c-.7 0-1.3-.5-1.3-1.3s.5-1.3 1.3-1.3c.7 0 1.3.6 1.3 1.3 0 .7-.6 1.3-1.3 1.3Z"/>
    </g>
  </g>
  <defs>
    <clipPath id="a">
      <path fill="#fff" transform="rotate(-180 8 8.17845)" d="M0 0h16v16H0z"/>
    </clipPath>
    <clipPath id="b">
      <path fill="#fff" transform="translate(0 .356934)" d="M0 0h16v16H0z"/>
    </clipPath>
  </defs>
</svg>
