<svg width="16" height="15" viewBox="0 0 16 15" fill="none" xmlns="http://www.w3.org/2000/svg">
  <g clip-path="url(#a)">
    <g clip-path="url(#b)">
      <path d="M10.3467.511449c1.6-.497975 2.7733.298785 3.4133 1.095541.5333-.19919 1.1733-.39838 1.8133-.59757 0 .79676-.5333 1.39433-.8533 1.59352.7467.19919 1.28-.39838 1.28-.39838-.1067.89636-.96 1.69312-1.4933 1.89231C14.2933 10.3714 11.52 14.4547 5.01333 14.3552h-.42666c-.32 0-3.94667-.3984-4.58667-1.7928 2.13333.1992 3.62667-.3983 4.37333-1.0955-.85333-.2988-2.56-.3984-2.77333-2.78866.32.19919.53333.29878 1.17333.19919C1.6 8.08067.32 7.3835.426667 5.3916c.32.29879.960003.49798 1.280003.39838-.64-.19919-1.920003-3.08744-.853337-4.58137C2.56 2.90173 4.37333 4.59484 7.57333 4.69444 7.78667 2.60294 8.64 1.20861 10.3467.511449Z" fill="#000"/>
    </g>
  </g>
  <defs>
    <clipPath id="a">
      <path fill="#fff" transform="rotate(-180 8 7.17845)" d="M0 0h16v14H0z"/>
    </clipPath>
    <clipPath id="b">
      <path fill="#fff" transform="translate(0 .356934)" d="M0 0h16v14H0z"/>
    </clipPath>
  </defs>
</svg>
